# xmcd
#
# Track frame offsets:
#	187
#	19892
#	42862
#	68675
#	90147
#	113760
#	137447
#	158642
#	183295
#	208847
#
# Disc length: 3123 seconds
#
# Revision: 1
# Processed by: cddbd v1.4PL0 Copyright (c) Steve Scherf et al.
# Submitted via: EasyCDDAExtractor 5.0.7
#
DISCID=750c310a
DTITLE=Che Linh and Thanh Tuyen - Ao Cuoi Mau Hoa Ca
DYEAR=1900
DGENRE=
TTITLE0=Gio lanh dem he
TTITLE1=Ao cuoi mau hoa ca
TTITLE2=Trang rung xuong cau
TTITLE3=Thu gui nguoi mien xa
TTITLE4=Bai ca tra nang
TTITLE5=Nhim cau tri am
TTITLE6=Nu cuoi trong mat em
TTITLE7=Bong hong cai ao
TTITLE8=Giong ca di vang 
TTITLE9=Tinh dem lien hoan
EXTD=
EXTT0=
EXTT1=
EXTT2=
EXTT3=
EXTT4=
EXTT5=
EXTT6=
EXTT7=
EXTT8=
EXTT9=
PLAYORDER=
